# xmcd
#
# Track frame offsets:
#	150
#	16033
#	31505
#	48823
#	56649
#	75192
#	86141
#	96323
#	110818
#	128906
#	142775
#	149366
#	163517
#	177498
#	185840
#	198657
#	215058
#	227073
#	238119
#	252151
#	268537
#	278021
#	291731
#	300177
#	307841
#	322230
#	333787
#
# Disc length: 4695 seconds
#
# Revision: 1
# Processed by: cddbd v1.5.2PL0 Copyright (c) Steve Scherf et al.
# Submitted via: audiograbber 1.83.01
#
DISCID=8112551b
DTITLE=Ítalo e Renno - ao vivo
DYEAR=1900
DGENRE=
TTITLE0=Foi Por Amor
TTITLE1=Mordidas de Amor
TTITLE2=Um Dia de Domingo
TTITLE3=Quando Bate O Coração
TTITLE4=Deixa Prá Lá
TTITLE5=Me Diz Amor
TTITLE6=Aflição
TTITLE7=Carta Branca
TTITLE8=Beija Eu
TTITLE9=Você Vai Ver
TTITLE10=Até Mais Ver
TTITLE11=Linda
TTITLE12=Razões
TTITLE13=Vem Viver Essa Paixão
TTITLE14=Amor Prá Dar
TTITLE15=Eu Adoro Você
TTITLE16=Meu Cenário
TTITLE17=Eu Quero Ver Você Dizer Que Eu Sou Ruim
TTITLE18=Nosso Amor É Diferente
TTITLE19=Cavaleiro da Noite
TTITLE20=Anunciação
TTITLE21=Será
TTITLE22=É Preciso Saber Viver
TTITLE23=Meu Erro
TTITLE24=Me Dá Meu Coração
TTITLE25=Caboclo Sonhador
TTITLE26=Ceará Terra da Luz
EXTD=
EXTT0=
EXTT1=
EXTT2=
EXTT3=
EXTT4=
EXTT5=
EXTT6=
EXTT7=
EXTT8=
EXTT9=
EXTT10=
EXTT11=
EXTT12=
EXTT13=
EXTT14=
EXTT15=
EXTT16=
EXTT17=
EXTT18=
EXTT19=
EXTT20=
EXTT21=
EXTT22=
EXTT23=
EXTT24=
EXTT25=
EXTT26=
PLAYORDER=
